<?xml version="1.0" encoding="utf-8"?>
<!-- Generator: Adobe Illustrator 24.0.1, SVG Export Plug-In . SVG Version: 6.00 Build 0)  -->
<svg version="1.1" id="Layer_1" xmlns="http://www.w3.org/2000/svg" xmlns:xlink="http://www.w3.org/1999/xlink" x="0px" y="0px"
	 viewBox="0 0 4624.9 647.6" style="enable-background:new 0 0 4624.9 647.6;" xml:space="preserve">
<style type="text/css">
	.st0{fill:#1D1D1B;}
</style>
<title>logo</title>
<g>
	<polygon class="st0" points="109.4,28.5 7,28.5 7,39.8 83.4,51.1 79.9,616.5 0,631.3 0,636.5 194.6,636.5 194.6,631.3 106.8,615.6 
		106,59.7 348.3,638.2 363.1,638.2 595,80.6 602.8,620.8 535,631.3 535,636.5 755.7,636.5 755.7,631.3 687.9,620.8 680.1,50.2 
		749.6,39.8 749.6,28.5 634.1,28.5 594.1,26.7 594.1,28.5 393.5,506.2 393.5,503.6 191.1,25.9 	"/>
	<path class="st0" d="M978,647.8c-127.7,0-191.1-81.6-191.1-209.3c0-125.9,163.3-216.3,215.4-220.6c127.7,2.6,193.7,79,193.7,206.7
		C1196,576.5,1018,643.4,978,647.8 M1116.1,457.5c0-119.9-79-205.8-143.3-205.8c-83.4,0-106,79-106,162.4
		c0,128.5,82.5,205,140.7,205C1090.9,619.1,1116.1,514.9,1116.1,457.5"/>
	<path class="st0" d="M1232.4,494.9l6.1-0.9l40.8,89.5c26.1,23.5,69.5,47.8,102.5,48.7c37.3,0,69.5-21.7,69.5-83.4
		c0-81.7-220.6-92.9-220.6-203.2c0-59.9,54.7-112.1,139.8-127.7c23.4,0.9,70.3,15.6,111.2,31.3l18.3,89.5h-6.1l-53-61.7
		c-24.3-24.3-53-40-94.7-40.8c-42.6,2.6-60.8,26.9-60.8,61.7c0,79,231.9,105.1,230.2,213.7c0,81.7-63.4,121.6-155.5,137.3
		c-46,0-114.7-38.2-129.4-53L1232.4,494.9z"/>
	<path class="st0" d="M1567.7,494.9l6.1-0.9l40.8,89.5c26.1,23.5,69.5,47.8,102.5,48.7c37.3,0,69.5-21.7,69.5-83.4
		c0-81.7-220.6-92.9-220.6-203.2c0-59.9,54.7-112.1,139.8-127.7c23.4,0.9,70.3,15.6,111.2,31.3l18.2,89.5h-6.1l-53-61.7
		c-24.3-24.3-53-40-94.7-40.8c-42.6,2.6-60.8,26.9-60.8,61.7c0,79,231.9,105.1,230.2,213.7c0,81.7-63.4,121.6-155.5,137.3
		c-46,0-114.7-38.2-129.4-53L1567.7,494.9z"/>
	<path class="st0" d="M1883,632.1l58.2-9.6V243l-49.5-9.6v-5.2H2008l10.4,1.8v392.6l57.3,9.6v4.3H1883V632.1z M1936.8,45.8
		c-0.4-24.9,19.5-45.5,44.5-45.8s45.5,19.5,45.8,44.5c0,0.4,0,0.9,0,1.3c0,26-20,46-45.2,46S1936.8,71.8,1936.8,45.8"/>
	<path class="st0" d="M2868.7,244.7l68.6-28.7l58.2-96.4l10.4,0.9l-3.5,109.4h139.8v25.2l-33,4.3l-102.5-2.6l1.8,270.1
		c-0.9,45.2,21.7,69.5,46.9,70.4c27.8,0,45.2-7,86.9-35.6l5.2,5.2c-45.2,36.5-67.8,53.9-111.2,80.8c-66.9-5.2-97.3-39.9-103.4-103.3
		l-3.5-289.2h-2.6l-58.2-1.7V244.7z"/>
	<path class="st0" d="M3504.5,545.3c-37.4,37.3-82.5,67.8-134.6,93.8c-15.6,4.3-28.7,5.2-44.3,5.2c-107.7,0-172.9-86-172.9-205
		c0-112.9,73.8-197.2,186.8-221.5c122.5-3.5,159,58.2,160.7,190.2l-277.1,1.7c1.7,101.6,57.3,182.4,159.8,182.4
		c49.5,0,90.3-31.3,112-55.6L3504.5,545.3z M3223.1,402l193.7-8.7c1.7-4.3,3.5-9.5,3.5-13c0-91.2-45.2-139.8-100.8-138.1
		C3239.6,244.8,3223.1,304.7,3223.1,402"/>
	<polygon class="st0" points="3524.5,632.1 3582.6,622.6 3582.6,44.1 3524.5,38 3524.5,32.8 3649.5,24.1 3659.9,25 3659.9,622.6 
		3717.3,632.1 3717.3,636.5 3524.5,636.5 	"/>
	<path class="st0" d="M3729.4,632.1l58.2-9.6V243l-49.5-9.6v-5.2h116.4l10.4,1.8v392.6l57.3,9.6v4.3h-192.8V632.1z M3783.3,45.8
		c-0.4-24.9,19.6-45.5,44.5-45.8c24.9-0.4,45.5,19.6,45.8,44.5c0,0.4,0,0.9,0,1.3c0,26-20,46-45.2,46S3783.3,71.8,3783.3,45.8"/>
	<path class="st0" d="M4290.5,545.3c-37.3,37.3-82.5,67.8-134.6,93.8c-15.6,4.3-28.7,5.2-44.3,5.2c-107.7,0-172.9-86-172.9-205
		c0-112.9,73.9-197.2,186.7-221.5c122.5-3.5,159,58.2,160.7,190.2l-277.1,1.7c1.7,101.6,57.3,182.4,159.8,182.4
		c49.5,0,90.3-31.3,112-55.6L4290.5,545.3z M4009.1,402l193.7-8.7c1.7-4.3,3.5-9.5,3.5-13c0-91.2-45.2-139.8-100.8-138.1
		C4025.6,244.8,4009.1,304.7,4009.1,402"/>
	<path class="st0" d="M4310.5,632.1l58.2-9.6V243.9l-41.6-10.4v-5.2h106l10.4,1.8l-7.8,86h3.4c37.3-46.9,89.5-88.6,106-93.8
		c38.2,1.7,64.3,18.2,79.9,33.9l-52.1,64.3c-13.9-15.6-26.9-22.6-40-27.8c-21.7-7.8-53-12.2-86.9,29.5v300.5l60.8,9.6v4.3h-196.3
		L4310.5,632.1z"/>
	<polygon class="st0" points="2642.1,24.1 2583.9,28.5 2559.6,28.5 2538.7,87.1 2342.5,636.5 2369,636.5 2568.2,68.4 2568.2,69.3 
		2569.9,78 2742.8,636.5 2837.3,636.5 	"/>
</g>
</svg>
