<svg id="Layer_1" data-name="Layer 1" xmlns="http://www.w3.org/2000/svg" xmlns:xlink="http://www.w3.org/1999/xlink" viewBox="0 0 4624.88 1000.67">
  <defs>
    <style>
      .cls-1 {
        fill: none;
      }

      .cls-2 {
        fill: #fff;
      }

      .cls-3 {
        fill: #1d1d1b;
      }

      .cls-4 {
        clip-path: url(#clip-path);
      }
    </style>
    <clipPath id="clip-path">
      <rect class="cls-1" width="4624.88" height="1000.67"/>
    </clipPath>
  </defs>
  <title>logo</title>
  <rect class="cls-2" width="4624.88" height="1000.67"/>
  <polygon class="cls-3" points="109.45 205 6.96 205 6.96 216.28 83.39 227.58 79.92 793.02 0 807.8 0 813 194.57 813 194.57 807.8 106.84 792.15 105.97 236.26 348.31 814.73 363.07 814.73 594.98 257.11 602.8 797.36 535.05 807.8 535.05 813 755.67 813 755.67 807.8 687.92 797.36 680.1 226.71 749.59 216.28 749.59 205 634.06 205 594.11 203.25 594.11 205 393.47 682.71 393.47 680.11 191.09 202.38 109.45 205"/>
  <g class="cls-4">
    <path class="cls-3" d="M978,824.28c-127.68,0-191.09-81.64-191.09-209.33,0-125.93,163.29-216.26,215.42-220.61,127.66,2.6,193.68,79,193.68,206.72,0,152-178.06,218.88-218,223.22m138.1-190.21c0-119.86-79-205.85-143.31-205.85-83.39,0-106,79-106,162.43,0,128.55,82.51,205,140.71,205,83.38,0,108.57-104.24,108.57-161.56"/>
    <path class="cls-3" d="M1232.43,671.43l6.09-.89L1279.34,760c26.05,23.46,69.5,47.79,102.49,48.65,37.35,0,69.48-21.71,69.48-83.39,0-81.65-220.61-92.94-220.61-203.24,0-59.93,54.73-112.06,139.85-127.69,23.44.87,70.35,15.63,111.18,31.27L1500,515.07h-6.09l-53-61.66c-24.33-24.32-53-40-94.68-40.83-42.56,2.61-60.79,26.92-60.79,61.68,0,79,231.9,105.09,230.17,213.65,0,81.67-63.4,121.62-155.48,137.26-46,0-114.66-38.22-129.42-53Z"/>
    <path class="cls-3" d="M1567.68,671.43l6.09-.89L1614.59,760c26.05,23.46,69.5,47.79,102.49,48.65,37.35,0,69.48-21.71,69.48-83.39,0-81.65-220.61-92.94-220.61-203.24,0-59.93,54.73-112.06,139.85-127.69,23.44.87,70.35,15.63,111.18,31.27l18.23,89.46h-6.09l-53-61.66c-24.33-24.32-53-40-94.68-40.83-42.56,2.61-60.79,26.92-60.79,61.68,0,79,231.9,105.09,230.17,213.65,0,81.67-63.4,121.62-155.48,137.26-46,0-114.66-38.22-129.42-53Z"/>
    <path class="cls-3" d="M1883,808.66l58.18-9.57V419.54l-49.5-9.57v-5.21H2008l10.42,1.75V799.09l57.33,9.57V813H1883Zm53.84-586.29a45.17,45.17,0,1,1,90.33,0c0,26-20,46-45.15,46s-45.18-20-45.18-46"/>
    <path class="cls-3" d="M2868.7,421.27l68.62-28.67,58.2-96.41,10.41.87-3.47,109.45H3142.3V431.7l-33,4.34-102.49-2.61,1.75,270.13c-.87,45.17,21.71,69.48,46.9,70.36,27.79,0,45.16-7,86.85-35.62l5.21,5.2c-45.16,36.49-67.75,53.86-111.18,80.78-66.87-5.2-97.28-39.94-103.36-103.35L2929.5,431.7h-2.6L2868.7,430Z"/>
    <path class="cls-3" d="M3504.51,721.79c-37.36,37.35-82.53,67.75-134.64,93.81-15.64,4.34-28.67,5.22-44.29,5.22-107.72,0-172.86-86-172.86-205,0-112.93,73.82-197.17,186.75-221.5,122.48-3.47,159,58.19,160.68,190.22l-277.07,1.74c1.73,101.61,57.32,182.39,159.82,182.39,49.51,0,90.33-31.26,112-55.58ZM3223.08,578.48l193.69-8.68c1.73-4.34,3.48-9.55,3.48-13,0-91.21-45.17-139.85-100.76-138.1-79.9,2.6-96.41,62.53-96.41,159.81"/>
    <polygon class="cls-3" points="3524.46 808.66 3582.64 799.09 3582.64 220.64 3524.46 214.56 3524.46 209.34 3649.53 200.66 3659.95 201.54 3659.95 799.09 3717.28 808.66 3717.28 813 3524.46 813 3524.46 808.66"/>
    <path class="cls-3" d="M3729.43,808.66l58.18-9.57V419.54l-49.5-9.57v-5.21H3854.5l10.42,1.75V799.09l57.33,9.57V813H3729.43Zm53.84-586.29a45.17,45.17,0,1,1,90.33,0c0,26-20,46-45.16,46s-45.17-20-45.17-46"/>
    <path class="cls-3" d="M4290.5,721.79c-37.34,37.35-82.51,67.75-134.63,93.81-15.64,4.34-28.67,5.22-44.29,5.22-107.72,0-172.86-86-172.86-205,0-112.93,73.85-197.17,186.75-221.5,122.48-3.47,158.95,58.19,160.68,190.22l-277.06,1.74c1.73,101.61,57.32,182.39,159.81,182.39,49.52,0,90.33-31.26,112.05-55.58ZM4009.09,578.48l193.69-8.68c1.73-4.34,3.47-9.55,3.47-13,0-91.21-45.17-139.85-100.76-138.1-79.9,2.6-96.4,62.53-96.4,159.81"/>
    <path class="cls-3" d="M4310.46,808.66l58.19-9.57V420.4L4327,410v-5.21h106l10.43,1.75-7.82,86H4439c37.34-46.9,89.47-88.6,106-93.8,38.21,1.73,64.27,18.23,79.91,33.87l-52.11,64.28c-13.9-15.64-26.92-22.58-40-27.81-21.71-7.82-53-12.16-86.87,29.54V799.09l60.81,9.57V813h-196.3Z"/>
    <polygon class="cls-3" points="2642.05 200.66 2583.85 205 2559.65 205 2538.71 263.64 2342.52 813 2369 813 2568.22 244.95 2568.22 245.81 2569.95 254.5 2742.77 813 2837.26 813 2642.05 200.66"/>
  </g>
</svg>
